<svg xmlns="http://www.w3.org/2000/svg" xmlns:xlink="http://www.w3.org/1999/xlink" viewBox="0 0 300 180"><defs><style>.cls-1{fill:#1b1464;}.cls-2{clip-path:url(#clip-path);}.cls-3{fill:#2e3192;}.cls-4{fill:#364ad8;}.cls-5{fill:#738be5;}.cls-6{fill:#9aa5e2;}</style><clipPath id="clip-path"><path class="cls-1" d="M295,98.66,157.69,177.94a15.37,15.37,0,0,1-15.38,0l-15.18-8.76L264.29,90,150,24,127.14,37.21,218.57,90,66.26,177.94a15.37,15.37,0,0,1-15.38,0L5,151.45a10,10,0,0,1,0-17.32L81.43,90,0,43l15.17-8.76a15.37,15.37,0,0,1,15.38,0L127.14,90,35.71,142.79,58.57,156,172.86,90,35.71,10.81,50.88,2.06a15.37,15.37,0,0,1,15.38,0l38,22,38-22a15.37,15.37,0,0,1,15.38,0L295,81.34A10,10,0,0,1,295,98.66Z"/></clipPath></defs><title>striped-icon</title><g id="Layer_2" data-name="Layer 2"><g id="Layer_1-2" data-name="Layer 1"><path class="cls-1" d="M295,98.66,157.69,177.94a15.37,15.37,0,0,1-15.38,0l-15.18-8.76L264.29,90,150,24,127.14,37.21,218.57,90,66.26,177.94a15.37,15.37,0,0,1-15.38,0L5,151.45a10,10,0,0,1,0-17.32L81.43,90,0,43l15.17-8.76a15.37,15.37,0,0,1,15.38,0L127.14,90,35.71,142.79,58.57,156,172.86,90,35.71,10.81,50.88,2.06a15.37,15.37,0,0,1,15.38,0l38,22,38-22a15.37,15.37,0,0,1,15.38,0L295,81.34A10,10,0,0,1,295,98.66Z"/><g class="cls-2"><rect class="cls-3" x="61.55" y="44.75" width="11.61" height="149.67" transform="translate(-64.83 82.65) rotate(-45)"/><polygon class="cls-3" points="268.46 131.82 136.64 0 180.44 0 290.36 109.93 268.46 131.82"/><polygon class="cls-4" points="135.99 180 0 44.01 0 39.71 10.17 29.55 160.62 180 135.99 180"/><polygon class="cls-4" points="246.57 153.72 105.84 12.99 136.64 0 268.46 131.82 246.57 153.72"/><polygon class="cls-5" points="160.62 180 10.17 29.55 25.22 14.49 190.73 180 160.62 180"/><polygon class="cls-5" points="224.67 175.62 49.05 0 92.85 0 246.57 153.72 224.67 175.62"/><polygon class="cls-6" points="190.73 180 25.22 14.49 49.05 0 224.67 175.62 190.73 180"/></g></g></g></svg>