<svg xmlns="http://www.w3.org/2000/svg" viewBox="0 0 300 180"><defs><style>.cls-1{fill:#fff;}</style></defs><title>white-icon</title><g id="Layer_2" data-name="Layer 2"><g id="Layer_1-2" data-name="Layer 1"><path class="cls-1" d="M295,98.66,157.69,177.94a15.37,15.37,0,0,1-15.38,0l-15.18-8.76L264.29,90,150,24,127.14,37.21,218.57,90,66.26,177.94a15.37,15.37,0,0,1-15.38,0L5,151.45a10,10,0,0,1,0-17.32L81.43,90,0,43l15.17-8.76a15.37,15.37,0,0,1,15.38,0L127.14,90,35.71,142.79,58.57,156,172.86,90,35.71,10.81,50.88,2.06a15.37,15.37,0,0,1,15.38,0l38,22,38-22a15.37,15.37,0,0,1,15.38,0L295,81.34A10,10,0,0,1,295,98.66Z"/></g></g></svg>